<?xml version="1.0" standalone="no"?>
<!DOCTYPE svg PUBLIC "-//W3C//DTD SVG 20010904//EN"
 "http://www.w3.org/TR/2001/REC-SVG-20010904/DTD/svg10.dtd">
<svg version="1.0" xmlns="http://www.w3.org/2000/svg"
 width="512.000000pt" height="512.000000pt" viewBox="0 0 512.000000 512.000000"
 preserveAspectRatio="xMidYMid meet">
<metadata>
Created by potrace 1.11, written by Peter Selinger 2001-2013
</metadata>
<g transform="translate(0.000000,512.000000) scale(0.100000,-0.100000)"
fill="#000000" stroke="none">
<path d="M1255 4950 c-175 -37 -320 -148 -394 -303 -22 -45 -44 -107 -50 -137
-10 -58 -9 -198 3 -240 6 -21 2 -28 -26 -44 -246 -143 -369 -476 -274 -746 15
-41 29 -82 31 -90 4 -10 -15 -26 -56 -50 -75 -43 -182 -148 -228 -224 -32 -54
-74 -156 -87 -213 -15 -66 -12 -234 6 -302 58 -228 203 -388 435 -483 110 -45
313 -47 433 -5 l72 26 0 -110 0 -109 -449 0 c-247 0 -457 -3 -466 -6 -45 -18
-45 -14 -45 -871 0 -444 3 -818 6 -831 15 -55 -133 -52 2394 -52 2491 0 2376
-2 2394 45 3 9 6 383 6 831 0 880 1 863 -52 878 -13 3 -222 6 -465 6 l-443 0
0 111 c0 73 3 108 10 104 36 -22 157 -47 245 -50 337 -13 611 202 690 539 14
58 14 218 1 276 -41 181 -166 355 -318 442 -39 22 -57 38 -54 48 3 8 17 49 32
90 26 68 28 87 28 200 -1 108 -4 135 -27 198 -14 41 -41 99 -59 130 -39 66
-158 188 -211 217 -33 17 -37 23 -31 45 11 44 13 183 3 240 -17 92 -81 211
-152 282 -106 106 -221 156 -372 163 -113 5 -168 -6 -272 -56 -201 -96 -327
-315 -310 -537 3 -38 9 -80 12 -94 5 -20 0 -27 -37 -48 -58 -32 -166 -143
-206 -212 -60 -101 -85 -190 -88 -310 -2 -113 10 -181 49 -272 15 -36 18 -51
9 -54 -27 -9 -134 -86 -177 -128 l-46 -44 -159 0 -159 0 -56 54 c-31 29 -83
69 -116 87 -40 23 -58 39 -54 49 2 8 16 49 31 90 21 61 27 94 28 175 2 152
-20 242 -86 354 -40 68 -149 179 -206 211 -38 21 -42 27 -36 50 12 42 13 182
3 240 -34 189 -197 368 -386 425 -59 18 -214 27 -268 15z m235 -171 c152 -54
261 -201 266 -358 1 -44 -4 -97 -12 -126 -22 -78 -26 -118 -12 -136 7 -8 46
-33 86 -54 122 -64 222 -192 251 -323 5 -23 8 -80 6 -125 -2 -91 -25 -162 -77
-242 -34 -54 -40 -104 -15 -130 8 -8 39 -24 69 -35 130 -50 133 -49 -254 -50
l-358 0 0 103 0 103 155 154 c86 85 158 165 161 178 14 51 -30 102 -87 102
-12 0 -63 -42 -125 -102 l-104 -101 0 386 c0 212 -4 397 -9 410 -11 29 -61 52
-96 43 -53 -13 -55 -31 -55 -453 l0 -388 -100 100 c-94 93 -102 100 -141 100
-53 0 -82 -33 -75 -85 5 -28 33 -62 161 -190 l155 -155 0 -103 0 -102 -52 0
c-37 0 -61 -6 -78 -20 l-25 -19 -3 -421 -3 -421 -62 -30 c-81 -37 -162 -52
-252 -45 -93 8 -157 27 -230 71 -153 92 -244 244 -251 421 -6 153 44 280 151
390 59 60 184 134 226 134 24 0 52 44 52 78 0 15 -18 56 -40 92 -95 154 -95
341 0 502 37 64 122 140 207 185 86 45 93 61 65 141 -73 216 38 450 249 520
68 23 193 24 256 1z m2422 -10 c184 -79 284 -281 233 -469 -25 -90 -27 -122
-13 -141 7 -8 46 -33 86 -54 241 -126 331 -420 201 -654 -64 -114 -61 -106
-46 -144 12 -28 25 -37 74 -55 223 -81 357 -279 349 -515 -10 -283 -245 -502
-530 -493 -91 3 -148 17 -218 52 l-47 24 -3 420 c-3 482 3 451 -98 458 l-60 4
0 101 0 101 154 156 c86 86 157 166 161 180 13 54 -27 100 -87 100 -12 0 -60
-39 -121 -100 l-102 -99 -5 392 c-4 289 -8 398 -18 414 -27 48 -121 35 -136
-20 -3 -12 -6 -195 -6 -407 l0 -385 -97 97 c-54 53 -110 100 -124 103 -36 9
-87 -19 -95 -50 -11 -44 13 -77 166 -230 l150 -150 0 -102 0 -103 -357 0 -358
1 35 19 c19 11 56 26 82 35 25 9 52 23 59 31 21 26 14 76 -19 129 -69 108 -97
249 -71 365 32 145 127 263 269 335 84 43 94 65 64 146 -23 62 -27 186 -8 251
38 126 136 224 273 273 60 21 196 13 263 -16z m-72 -2129 c0 -260 -3 -400 -10
-400 -6 0 -10 137 -10 390 0 305 -3 390 -12 391 -7 1 -572 2 -1255 3 l-1241 1
-4 -25 c-2 -14 -3 -190 -3 -392 1 -294 -2 -368 -12 -368 -10 0 -13 80 -13 400
l0 400 1280 0 1280 0 0 -400z m-2400 -1280 l0 -720 -80 0 -80 0 0 720 0 720
80 0 80 0 0 -720z m2080 322 l0 -398 -55 -11 c-30 -7 -70 -19 -88 -28 -37 -17
-101 -75 -132 -119 -17 -24 -23 -26 -46 -18 -14 6 -57 9 -95 8 -54 -2 -83 -9
-128 -32 l-58 -30 -59 30 c-43 21 -59 35 -60 50 -4 114 -79 226 -183 274 -55
27 -159 38 -212 23 -29 -8 -40 -8 -45 2 -41 70 -116 133 -179 151 -68 19 -145
18 -199 -3 -54 -20 -92 -20 -119 2 -7 5 -44 11 -83 13 -64 3 -97 -3 -161 -31
-17 -7 -18 9 -18 254 l0 261 960 0 960 0 0 -398z m320 -322 l0 -720 -80 0 -80
0 0 720 0 720 80 0 80 0 0 -720z m-3360 -80 c0 -264 -3 -480 -7 -481 -55 -4
-87 -11 -112 -23 -16 -9 -32 -16 -36 -16 -3 0 -5 225 -5 500 l0 500 80 0 80 0
0 -480z m320 158 l0 -323 -80 0 -80 0 0 323 0 322 80 0 80 0 0 -322z m320 82
c0 -185 -3 -240 -12 -241 -43 -2 -83 -11 -108 -24 -16 -8 -31 -15 -35 -15 -3
0 -5 117 -5 260 l0 260 80 0 80 0 0 -240z m3040 -19 l0 -259 -22 5 c-13 3 -27
9 -33 14 -5 4 -31 10 -57 14 l-48 7 0 239 0 239 80 0 80 0 0 -259z m320 -63
l0 -323 -80 0 -80 -1 0 323 0 323 80 0 80 0 0 -322z m320 -178 c0 -275 -1
-500 -2 -500 -2 0 -28 9 -58 21 -30 11 -56 20 -57 20 -2 -1 -12 -1 -23 -1 -20
0 -20 7 -20 480 l0 480 80 0 80 0 0 -500z m-2942 145 c47 -32 78 -32 127 3 57
39 136 39 189 -1 38 -29 54 -58 63 -112 12 -75 85 -98 150 -48 48 37 128 42
174 10 68 -47 86 -101 67 -207 -4 -24 0 -39 20 -68 5 -7 37 -17 71 -23 84 -13
103 -26 95 -63 -11 -49 -12 -60 -13 -82 -1 -15 -15 -27 -53 -44 -64 -29 -126
-89 -158 -155 -20 -41 -25 -65 -24 -135 0 -60 5 -95 17 -119 9 -19 17 -36 17
-38 0 -1 -90 -3 -200 -3 -110 0 -200 2 -200 5 0 4 7 20 17 38 19 38 26 151 11
204 -18 65 -74 141 -131 177 -29 18 -61 35 -72 37 -15 3 -22 19 -32 73 -30
162 -161 268 -325 262 l-68 -2 0 87 c0 47 3 101 7 119 7 38 70 106 105 113 44
10 109 -3 146 -28z m-738 -524 l0 -239 -25 -6 c-43 -11 -55 -52 -55 -191 l0
-125 -40 0 -40 0 0 324 c0 178 3 338 7 356 3 19 23 50 44 71 33 33 53 43 97
48 9 1 12 -53 12 -238z m2400 0 l0 -239 -25 -6 c-43 -11 -55 -52 -55 -191 l0
-126 -309 3 c-295 3 -311 4 -337 24 -52 39 -69 70 -69 133 0 48 5 64 29 96 31
40 78 65 125 65 75 0 104 40 88 123 -29 146 125 251 244 166 16 -11 43 -24 60
-29 27 -8 35 -6 60 20 24 23 35 49 28 63 -1 1 8 21 19 44 27 52 78 90 125 92
16 1 17 -17 17 -238z m574 206 c15 -11 37 -38 47 -61 17 -37 19 -71 19 -373
l0 -333 -40 0 -40 0 0 124 c0 143 -8 173 -50 187 l-30 11 0 240 0 240 33 -7
c17 -4 45 -17 61 -28z m-3320 -137 l26 -10 0 -310 0 -310 -80 0 -80 0 0 310
c0 305 0 311 21 318 32 12 84 13 113 2z m993 -16 c57 -43 68 -69 68 -162 0
-48 5 -95 11 -105 7 -12 30 -21 74 -27 70 -10 103 -29 138 -81 20 -28 23 -43
20 -87 -5 -56 -25 -91 -72 -126 -24 -19 -44 -21 -177 -24 l-149 -3 0 125 c0
68 -4 136 -9 149 -5 13 -23 30 -40 37 l-31 12 0 148 c0 143 1 147 23 157 35
17 113 10 144 -13z m2703 11 c6 -4 10 -114 10 -316 l0 -309 -80 0 -80 0 0 310
0 311 23 9 c23 10 108 7 127 -5z m-3990 -465 l0 -160 -80 0 -80 0 0 95 c0 59
5 108 14 129 20 48 79 90 134 95 9 1 12 -37 12 -159z m4248 132 c53 -35 67
-70 71 -184 l3 -108 -81 0 -81 0 0 161 0 161 32 -8 c18 -3 43 -13 56 -22z
m-3208 -212 l0 -80 -160 0 -160 0 0 80 0 80 160 0 160 0 0 -80z m2400 0 l0
-80 -160 0 -160 0 0 80 0 80 160 0 160 0 0 -80z"/>
</g>
</svg>
